<svg width="18" height="19" viewBox="0 0 18 19" fill="none" xmlns="http://www.w3.org/2000/svg">
<path d="M11.5124 15.5L10.0499 16.9437C9.76238 17.2312 9.41238 17.375 8.99988 17.375C8.58738 17.375 8.23738 17.2312 7.94988 16.9437L6.48738 15.5H4.49988C4.08738 15.5 3.73413 15.353 3.44013 15.059C3.14613 14.765 2.99938 14.412 2.99988 14V12.0125L1.55613 10.55C1.26863 10.2625 1.12488 9.9125 1.12488 9.5C1.12488 9.0875 1.26863 8.7375 1.55613 8.45L2.99988 6.9875V5C2.99988 4.5875 3.14688 4.23425 3.44088 3.94025C3.73488 3.64625 4.08788 3.4995 4.49988 3.5H6.48738L7.94988 2.05625C8.23738 1.76875 8.58738 1.625 8.99988 1.625C9.41238 1.625 9.76238 1.76875 10.0499 2.05625L11.5124 3.5H13.4999C13.9124 3.5 14.2656 3.647 14.5596 3.941C14.8536 4.235 15.0004 4.588 14.9999 5V6.9875L16.4436 8.45C16.7311 8.7375 16.8749 9.0875 16.8749 9.5C16.8749 9.9125 16.7311 10.2625 16.4436 10.55L14.9999 12.0125V14C14.9999 14.4125 14.8529 14.7657 14.5589 15.0597C14.2649 15.3537 13.9119 15.5005 13.4999 15.5H11.5124ZM8.99988 11.3563L10.4436 12.2188C10.5811 12.3062 10.7154 12.3033 10.8464 12.2098C10.9774 12.1163 11.0244 11.988 10.9874 11.825L10.6124 10.1938L11.8874 9.0875C12.0124 8.975 12.0499 8.84075 11.9999 8.68475C11.9499 8.52875 11.8374 8.44425 11.6624 8.43125L9.99363 8.3L9.33738 6.74375C9.27488 6.59375 9.16238 6.51875 8.99988 6.51875C8.83738 6.51875 8.72488 6.59375 8.66238 6.74375L8.00613 8.3L6.33738 8.43125C6.16238 8.44375 6.04988 8.52825 5.99988 8.68475C5.94988 8.84125 5.98738 8.9755 6.11238 9.0875L7.38738 10.1938L7.01238 11.825C6.97488 11.9875 7.02188 12.1158 7.15338 12.2098C7.28488 12.3038 7.41913 12.3067 7.55613 12.2188L8.99988 11.3563Z" fill="#B16C4C"/>
</svg>
