<svg width="22" height="16" viewBox="0 0 22 16" fill="none" xmlns="http://www.w3.org/2000/svg">
<path d="M13 5.9V4.2C13.55 3.96667 14.1127 3.79167 14.688 3.675C15.2633 3.55834 15.8673 3.5 16.5 3.5C16.9333 3.5 17.3583 3.53334 17.775 3.6C18.1917 3.66667 18.6 3.75 19 3.85V5.45C18.6 5.3 18.1957 5.18734 17.787 5.112C17.3783 5.03667 16.9493 4.99934 16.5 5C15.8667 5 15.2583 5.07934 14.675 5.238C14.0917 5.39667 13.5333 5.61734 13 5.9ZM13 11.4V9.7C13.55 9.46667 14.1127 9.29167 14.688 9.175C15.2633 9.05834 15.8673 9 16.5 9C16.9333 9 17.3583 9.03334 17.775 9.1C18.1917 9.16667 18.6 9.25 19 9.35V10.95C18.6 10.8 18.1957 10.6873 17.787 10.612C17.3783 10.5367 16.9493 10.4993 16.5 10.5C15.8667 10.5 15.2583 10.575 14.675 10.725C14.0917 10.875 13.5333 11.1 13 11.4ZM13 8.65V6.95C13.55 6.71667 14.1127 6.54167 14.688 6.425C15.2633 6.30834 15.8673 6.25 16.5 6.25C16.9333 6.25 17.3583 6.28334 17.775 6.35C18.1917 6.41667 18.6 6.5 19 6.6V8.2C18.6 8.05 18.1957 7.93734 17.787 7.862C17.3783 7.78667 16.9493 7.74934 16.5 7.75C15.8667 7.75 15.2583 7.82934 14.675 7.988C14.0917 8.14667 13.5333 8.36734 13 8.65ZM12 13.05C12.7333 12.7 13.4707 12.4373 14.212 12.262C14.9533 12.0867 15.716 11.9993 16.5 12C17.1 12 17.6877 12.05 18.263 12.15C18.8383 12.25 19.4173 12.4 20 12.6V2.7C19.45 2.46667 18.879 2.29167 18.287 2.175C17.695 2.05834 17.0993 2 16.5 2C15.7167 2 14.9417 2.1 14.175 2.3C13.4083 2.5 12.6833 2.8 12 3.2V13.05ZM11 16C10.2 15.3667 9.33333 14.875 8.4 14.525C7.46667 14.175 6.5 14 5.5 14C4.8 14 4.11233 14.0917 3.437 14.275C2.76167 14.4583 2.116 14.7167 1.5 15.05C1.15 15.2333 0.812667 15.225 0.488 15.025C0.163333 14.825 0.000666667 14.5333 0 14.15V2.1C0 1.91667 0.046 1.74167 0.138 1.575C0.23 1.40834 0.367333 1.28334 0.55 1.2C1.33333 0.81667 2.13767 0.52067 2.963 0.312003C3.78833 0.103336 4.634 -0.000663482 5.5 3.18472e-06C6.46667 3.18472e-06 7.41267 0.125003 8.338 0.375003C9.26333 0.625003 10.1507 1 11 1.5C11.85 1 12.7377 0.625003 13.663 0.375003C14.5883 0.125003 15.534 3.18472e-06 16.5 3.18472e-06C17.3667 3.18472e-06 18.2127 0.104337 19.038 0.313003C19.8633 0.52167 20.6673 0.817336 21.45 1.2C21.6333 1.28334 21.771 1.40834 21.863 1.575C21.955 1.74167 22.0007 1.91667 22 2.1V14.15C22 14.5333 21.8377 14.825 21.513 15.025C21.1883 15.225 20.8507 15.2333 20.5 15.05C19.8833 14.7167 19.2377 14.4583 18.563 14.275C17.8883 14.0917 17.2007 14 16.5 14C15.5 14 14.5333 14.175 13.6 14.525C12.6667 14.875 11.8 15.3667 11 16Z" fill="#D6F2EC"/>
</svg>
