<svg width="15" height="10" viewBox="0 0 15 10" fill="none" xmlns="http://www.w3.org/2000/svg">
<path d="M1.5 9.5C1.0875 9.5 0.734251 9.353 0.440251 9.059C0.146251 8.765 -0.000498727 8.412 1.27335e-06 8V2C1.27335e-06 1.5875 0.147001 1.23425 0.441001 0.940251C0.735001 0.646251 1.088 0.499501 1.5 0.500001H13.5C13.9125 0.500001 14.2658 0.647001 14.5598 0.941001C14.8538 1.235 15.0005 1.588 15 2V8C15 8.4125 14.853 8.76575 14.559 9.05975C14.265 9.35375 13.912 9.5005 13.5 9.5H1.5ZM3.75 5.75V6.5C3.75 6.7125 3.822 6.89075 3.966 7.03475C4.11 7.17875 4.288 7.2505 4.5 7.25C4.7125 7.25 4.89075 7.178 5.03475 7.034C5.17875 6.89 5.2505 6.712 5.25 6.5V5.75H6C6.2125 5.75 6.39075 5.678 6.53475 5.534C6.67875 5.39 6.7505 5.212 6.75 5C6.75 4.7875 6.678 4.60925 6.534 4.46525C6.39 4.32125 6.212 4.2495 6 4.25H5.25V3.5C5.25 3.2875 5.178 3.10925 5.034 2.96525C4.89 2.82125 4.712 2.7495 4.5 2.75C4.2875 2.75 4.10925 2.822 3.96525 2.966C3.82125 3.11 3.7495 3.288 3.75 3.5V4.25H3C2.7875 4.25 2.60925 4.322 2.46525 4.466C2.32125 4.61 2.2495 4.788 2.25 5C2.25 5.2125 2.322 5.39075 2.466 5.53475C2.61 5.67875 2.788 5.7505 3 5.75H3.75ZM9.375 7.25C9.6875 7.25 9.95325 7.1405 10.1723 6.9215C10.3913 6.7025 10.5005 6.437 10.5 6.125C10.5 5.8125 10.3905 5.54675 10.1715 5.32775C9.9525 5.10875 9.687 4.9995 9.375 5C9.0625 5 8.79675 5.1095 8.57775 5.3285C8.35875 5.5475 8.2495 5.813 8.25 6.125C8.25 6.4375 8.3595 6.70325 8.5785 6.92225C8.7975 7.14125 9.063 7.2505 9.375 7.25ZM11.625 5C11.9375 5 12.2033 4.8905 12.4223 4.6715C12.6413 4.4525 12.7505 4.187 12.75 3.875C12.75 3.5625 12.6405 3.29675 12.4215 3.07775C12.2025 2.85875 11.937 2.7495 11.625 2.75C11.3125 2.75 11.0468 2.8595 10.8278 3.0785C10.6088 3.2975 10.4995 3.563 10.5 3.875C10.5 4.1875 10.6095 4.45325 10.8285 4.67225C11.0475 4.89125 11.313 5.0005 11.625 5Z" fill="#D6F2EC"/>
</svg>
